<?xml version="1.0" encoding="UTF-8"?><svg id="Layer_1" xmlns="http://www.w3.org/2000/svg" viewBox="0 0 207.03 183.641"><path d="M48.034,180.295l35.334-46.86C56.512,90.417,29.655,47.399,2.798,4.382c25.106,28.049,50.212,56.098,75.318,84.147,7.295,8.735,14.589,17.47,21.885,26.206,9.906-9.598,19.842-19.456,29.789-29.581,26.762-27.242,51.468-54.239,74.272-80.721-29.656,42.859-59.311,85.719-88.968,128.578l35.335,47.285h-33.721l-17.819-27.819-17.991,27.819h-32.865Z" fill="#c8912e" opacity=".85"/><path d="M112.22,70.47c0,7.484-6.067,13.551-13.551,13.551s-13.552-6.067-13.552-13.551,6.068-13.551,13.552-13.551,13.551,6.067,13.551,13.551Z" fill="#c8912e" opacity=".85"/></svg>