<?xml version="1.0" encoding="UTF-8"?><svg id="Layer_1" xmlns="http://www.w3.org/2000/svg" viewBox="0 0 1100 345"><rect x="-.35" y=".2" width="1099.85" height="344.7" fill="#1b3664"/><path d="M210.47,79.55c6.78,0,12.96.6,18.54,1.79,5.58,1.2,10.37,3.16,14.35,5.88,3.99,2.72,7.08,6.35,9.27,10.86,2.19,4.52,3.29,10.1,3.29,16.74,0,7.18-1.63,13.15-4.88,17.94-3.26,4.78-8.07,8.7-14.45,11.76,8.77,2.53,15.31,6.94,19.63,13.25,4.32,6.31,6.48,13.92,6.48,22.82,0,7.18-1.39,13.39-4.19,18.64-2.79,5.25-6.55,9.54-11.26,12.86-4.72,3.32-10.1,5.78-16.15,7.38-6.05,1.59-12.26,2.39-18.64,2.39h-68.96V79.55h66.97ZM206.48,137.15c5.58,0,10.17-1.33,13.75-3.99,3.59-2.66,5.38-6.98,5.38-12.96,0-3.32-.6-6.04-1.79-8.17-1.2-2.12-2.79-3.79-4.78-4.98-1.99-1.2-4.29-2.02-6.88-2.49-2.59-.46-5.28-.7-8.07-.7h-29.3v33.29h31.69ZM208.27,197.55c3.05,0,5.98-.3,8.77-.9,2.79-.6,5.25-1.59,7.38-2.99,2.12-1.4,3.82-3.29,5.08-5.68,1.26-2.39,1.89-5.45,1.89-9.17,0-7.31-2.06-12.52-6.18-15.65-4.12-3.12-9.57-4.68-16.34-4.68h-34.08v39.07h33.49Z" fill="#fff"/><path d="M311.12,197.15c4.25,4.12,10.36,6.18,18.34,6.18,5.71,0,10.63-1.43,14.75-4.29,4.12-2.86,6.64-5.88,7.57-9.07h24.92c-3.99,12.36-10.1,21.2-18.34,26.51-8.24,5.32-18.21,7.97-29.9,7.97-8.11,0-15.42-1.3-21.93-3.89-6.51-2.59-12.03-6.28-16.54-11.06-4.52-4.78-8.01-10.5-10.46-17.14-2.46-6.64-3.69-13.95-3.69-21.92s1.26-14.88,3.79-21.53c2.52-6.64,6.11-12.39,10.76-17.24,4.65-4.85,10.2-8.67,16.64-11.46,6.44-2.79,13.58-4.19,21.43-4.19,8.77,0,16.41,1.69,22.92,5.08,6.51,3.39,11.86,7.94,16.04,13.65,4.19,5.71,7.21,12.23,9.07,19.53,1.86,7.31,2.52,14.95,1.99,22.92h-74.35c.4,9.17,2.72,15.81,6.98,19.93ZM343.11,142.93c-3.39-3.72-8.54-5.58-15.45-5.58-4.52,0-8.27.77-11.26,2.29-2.99,1.53-5.38,3.42-7.18,5.68-1.79,2.26-3.06,4.65-3.79,7.18-.73,2.53-1.17,4.78-1.3,6.78h46.04c-1.33-7.18-3.69-12.62-7.08-16.34Z" fill="#fff"/><path d="M422.14,118.82v14.35h.6c3.59-5.98,8.24-10.33,13.95-13.06,5.71-2.72,11.56-4.09,17.54-4.09,7.57,0,13.78,1.03,18.64,3.09,4.85,2.06,8.67,4.92,11.46,8.57,2.79,3.66,4.75,8.11,5.88,13.35,1.13,5.25,1.69,11.06,1.69,17.44v63.38h-28.3v-58.2c0-8.5-1.33-14.85-3.99-19.03-2.66-4.19-7.38-6.28-14.15-6.28-7.71,0-13.29,2.29-16.74,6.88-3.46,4.58-5.18,12.13-5.18,22.62v54.02h-28.3v-103.05h26.91Z" fill="#fff"/><path d="M543.72,197.15c4.25,4.12,10.36,6.18,18.34,6.18,5.71,0,10.63-1.43,14.75-4.29,4.12-2.86,6.64-5.88,7.57-9.07h24.92c-3.99,12.36-10.1,21.2-18.34,26.51-8.24,5.32-18.21,7.97-29.9,7.97-8.11,0-15.42-1.3-21.93-3.89-6.51-2.59-12.03-6.28-16.54-11.06-4.52-4.78-8.01-10.5-10.46-17.14-2.46-6.64-3.69-13.95-3.69-21.92s1.26-14.88,3.79-21.53c2.52-6.64,6.11-12.39,10.76-17.24,4.65-4.85,10.2-8.67,16.64-11.46,6.44-2.79,13.58-4.19,21.43-4.19,8.77,0,16.41,1.69,22.92,5.08,6.51,3.39,11.86,7.94,16.04,13.65,4.19,5.71,7.21,12.23,9.07,19.53,1.86,7.31,2.52,14.95,1.99,22.92h-74.35c.4,9.17,2.72,15.81,6.98,19.93ZM575.71,142.93c-3.39-3.72-8.54-5.58-15.45-5.58-4.52,0-8.27.77-11.26,2.29-2.99,1.53-5.38,3.42-7.18,5.68-1.79,2.26-3.06,4.65-3.79,7.18-.73,2.53-1.17,4.78-1.3,6.78h46.04c-1.33-7.18-3.69-12.62-7.08-16.34Z" fill="#fff"/><path d="M617.07,137.75v-18.94h16.94v-7.97c0-9.17,2.86-16.67,8.57-22.52,5.71-5.85,14.35-8.77,25.91-8.77,2.52,0,5.05.1,7.57.3,2.52.2,4.98.37,7.38.5v21.13c-3.32-.4-6.78-.6-10.37-.6-3.86,0-6.61.9-8.27,2.69-1.66,1.79-2.49,4.82-2.49,9.07v6.18h19.53v18.94h-19.53v84.11h-28.3v-84.11h-16.94Z" fill="#fff"/><path d="M859.24,150.51c.4-6.64,2.06-12.16,4.98-16.54,2.92-4.39,6.64-7.9,11.16-10.56,4.52-2.66,9.6-4.55,15.25-5.68,5.65-1.13,11.33-1.69,17.04-1.69,5.18,0,10.43.37,15.75,1.1,5.31.73,10.17,2.16,14.55,4.29,4.38,2.13,7.97,5.08,10.76,8.87s4.19,8.8,4.19,15.05v53.62c0,4.65.26,9.1.8,13.35.53,4.25,1.46,7.44,2.79,9.57h-28.7c-.53-1.59-.97-3.22-1.3-4.88-.33-1.66-.57-3.35-.7-5.08-4.52,4.65-9.83,7.91-15.95,9.77-6.11,1.86-12.36,2.79-18.74,2.79-4.92,0-9.5-.6-13.75-1.79-4.25-1.2-7.97-3.06-11.16-5.58-3.19-2.52-5.68-5.71-7.47-9.57-1.79-3.85-2.69-8.44-2.69-13.75,0-5.85,1.03-10.66,3.09-14.45,2.06-3.79,4.71-6.81,7.97-9.07,3.25-2.26,6.98-3.95,11.16-5.08,4.19-1.13,8.4-2.02,12.66-2.69,4.25-.66,8.44-1.2,12.56-1.59,4.12-.4,7.77-1,10.96-1.79,3.19-.8,5.71-1.96,7.57-3.49,1.86-1.53,2.72-3.75,2.59-6.68,0-3.06-.5-5.48-1.5-7.27-1-1.79-2.33-3.19-3.99-4.19-1.66-1-3.59-1.66-5.78-1.99-2.19-.33-4.55-.5-7.08-.5-5.58,0-9.96,1.2-13.15,3.59-3.19,2.39-5.05,6.38-5.58,11.96h-28.3ZM924.61,171.44c-1.2,1.06-2.69,1.89-4.48,2.49-1.79.6-3.72,1.1-5.78,1.5-2.06.4-4.22.73-6.48,1-2.26.27-4.52.6-6.78,1-2.13.4-4.22.93-6.28,1.59-2.06.67-3.86,1.56-5.38,2.69-1.53,1.13-2.76,2.56-3.69,4.29-.93,1.73-1.39,3.92-1.39,6.58s.46,4.65,1.39,6.38c.93,1.73,2.19,3.09,3.79,4.09,1.59,1,3.45,1.69,5.58,2.09,2.12.4,4.32.6,6.58.6,5.58,0,9.9-.93,12.96-2.79,3.05-1.86,5.31-4.09,6.78-6.68,1.46-2.59,2.36-5.21,2.69-7.87.33-2.66.5-4.78.5-6.38v-10.56Z" fill="#fff"/><path d="M745.45,222.56l35.33-46.86c-26.86-43.02-53.71-86.04-80.57-129.05,25.11,28.05,50.21,56.1,75.32,84.15,7.29,8.74,14.59,17.47,21.88,26.21,9.91-9.6,19.84-19.46,29.79-29.58,26.76-27.24,51.47-54.24,74.27-80.72-29.66,42.86-59.31,85.72-88.97,128.58l35.34,47.28h-33.72l-17.82-27.82-17.99,27.82h-32.87Z" fill="#c8912e" opacity=".85"/><path d="M809.63,112.73c0,7.48-6.07,13.55-13.55,13.55s-13.55-6.07-13.55-13.55,6.07-13.55,13.55-13.55,13.55,6.07,13.55,13.55Z" fill="#c8912e" opacity=".85"/><rect x="694.95" y="118.62" width="28.36" height="103.22" fill="#fff"/><g isolation="isolate"><g isolation="isolate"><path d="M143.76,258.4c.62-1.98,1.55-3.73,2.79-5.25s2.8-2.73,4.67-3.63c1.88-.9,4.05-1.35,6.53-1.35s4.65.45,6.51,1.35c1.86.9,3.41,2.11,4.65,3.63,1.24,1.52,2.17,3.27,2.79,5.25.62,1.98.93,4.06.93,6.25s-.31,4.27-.93,6.25c-.62,1.98-1.55,3.72-2.79,5.23-1.24,1.5-2.79,2.71-4.65,3.61-1.86.9-4.03,1.35-6.51,1.35s-4.66-.45-6.53-1.35c-1.88-.9-3.43-2.1-4.67-3.61s-2.17-3.25-2.79-5.23c-.62-1.98-.93-4.06-.93-6.25s.31-4.27.93-6.25ZM146.53,269.72c.46,1.67,1.17,3.16,2.13,4.47.96,1.32,2.19,2.37,3.7,3.17,1.51.8,3.31,1.2,5.4,1.2s3.89-.4,5.38-1.2c1.49-.8,2.72-1.85,3.68-3.17.96-1.31,1.67-2.8,2.13-4.47.46-1.67.69-3.36.69-5.07s-.23-3.44-.69-5.1c-.46-1.65-1.17-3.14-2.13-4.45-.96-1.32-2.19-2.37-3.68-3.17s-3.29-1.2-5.38-1.2-3.9.4-5.4,1.2-2.74,1.85-3.7,3.17c-.96,1.31-1.67,2.8-2.13,4.45-.46,1.66-.69,3.35-.69,5.1s.23,3.41.69,5.07Z" fill="#fff"/><path d="M189.52,248.83l18.43,26.76h.09v-26.76h3.01v31.63h-3.37l-18.43-26.76h-.09v26.76h-3.01v-31.63h3.37Z" fill="#fff"/><path d="M243.84,248.83h3.54l10.41,16.04,10.37-16.04h3.59l-12.49,18.61v13.03h-3.01v-13.03l-12.4-18.61Z" fill="#fff"/><path d="M282.6,258.4c.62-1.98,1.55-3.73,2.79-5.25s2.8-2.73,4.67-3.63c1.88-.9,4.05-1.35,6.53-1.35s4.65.45,6.51,1.35c1.86.9,3.41,2.11,4.65,3.63,1.24,1.52,2.17,3.27,2.79,5.25.62,1.98.93,4.06.93,6.25s-.31,4.27-.93,6.25c-.62,1.98-1.55,3.72-2.79,5.23-1.24,1.5-2.79,2.71-4.65,3.61-1.86.9-4.03,1.35-6.51,1.35s-4.66-.45-6.53-1.35c-1.88-.9-3.43-2.1-4.67-3.61s-2.17-3.25-2.79-5.23c-.62-1.98-.93-4.06-.93-6.25s.31-4.27.93-6.25ZM285.37,269.72c.46,1.67,1.17,3.16,2.13,4.47.96,1.32,2.19,2.37,3.7,3.17,1.51.8,3.31,1.2,5.4,1.2s3.89-.4,5.38-1.2c1.49-.8,2.72-1.85,3.68-3.17.96-1.31,1.67-2.8,2.13-4.47.46-1.67.69-3.36.69-5.07s-.23-3.44-.69-5.1c-.46-1.65-1.17-3.14-2.13-4.45-.96-1.32-2.19-2.37-3.68-3.17s-3.29-1.2-5.38-1.2-3.9.4-5.4,1.2-2.74,1.85-3.7,3.17c-.96,1.31-1.67,2.8-2.13,4.45-.46,1.66-.69,3.35-.69,5.1s.23,3.41.69,5.07Z" fill="#fff"/><path d="M327.75,248.83v19.58c0,1.83.21,3.39.62,4.67.41,1.29,1.02,2.33,1.82,3.15s1.77,1.4,2.92,1.77c1.15.37,2.45.56,3.9.56s2.79-.19,3.94-.56c1.15-.37,2.13-.96,2.92-1.77s1.4-1.86,1.82-3.15c.41-1.29.62-2.84.62-4.67v-19.58h3.01v20.25c0,1.62-.23,3.17-.69,4.63s-1.18,2.74-2.17,3.83-2.26,1.96-3.81,2.59c-1.55.64-3.43.95-5.65.95s-4.05-.32-5.6-.95c-1.55-.63-2.82-1.5-3.81-2.59-.99-1.09-1.71-2.37-2.17-3.83s-.69-3.01-.69-4.63v-20.25h3.01Z" fill="#fff"/><path d="M378.74,248.83c1.3,0,2.53.16,3.7.49s2.19.82,3.06,1.48c.87.66,1.57,1.52,2.08,2.57.52,1.05.78,2.28.78,3.7,0,2.01-.52,3.75-1.55,5.23s-2.57,2.42-4.61,2.84v.09c1.03.15,1.89.42,2.57.82.68.4,1.23.91,1.66,1.53.43.62.74,1.34.93,2.15.19.81.32,1.69.38,2.64.03.53.06,1.18.09,1.95.03.77.09,1.55.18,2.33.09.78.23,1.52.42,2.22.19.69.45,1.23.78,1.62h-3.32c-.18-.29-.32-.66-.42-1.08-.1-.43-.18-.87-.22-1.33-.04-.46-.08-.91-.11-1.35-.03-.44-.06-.83-.09-1.15-.06-1.12-.16-2.24-.29-3.35-.13-1.11-.41-2.1-.84-2.97s-1.05-1.57-1.86-2.1-1.93-.77-3.35-.71h-11.43v14.04h-3.01v-31.63h14.49ZM378.52,263.85c.91,0,1.79-.14,2.61-.42s1.55-.69,2.17-1.22c.62-.53,1.12-1.17,1.48-1.93s.55-1.62.55-2.59c0-1.95-.56-3.48-1.68-4.61-1.12-1.12-2.84-1.68-5.14-1.68h-11.25v12.45h11.25Z" fill="#fff"/><path d="M426.01,274.13c.53,1.09,1.26,1.97,2.19,2.61s2.03,1.12,3.3,1.39c1.27.28,2.63.42,4.08.42.83,0,1.73-.12,2.7-.36.98-.24,1.89-.61,2.73-1.13.84-.52,1.54-1.18,2.1-1.99s.84-1.79.84-2.94c0-.89-.2-1.65-.6-2.31-.4-.65-.91-1.2-1.55-1.64-.63-.44-1.33-.8-2.1-1.08-.77-.28-1.52-.51-2.26-.69l-7.04-1.73c-.92-.23-1.81-.53-2.68-.88-.87-.36-1.63-.83-2.28-1.42s-1.17-1.31-1.57-2.17c-.4-.86-.6-1.9-.6-3.14,0-.77.15-1.67.44-2.7.29-1.03.85-2.01,1.66-2.92.81-.91,1.93-1.69,3.34-2.33,1.42-.63,3.23-.95,5.45-.95,1.57,0,3.06.21,4.47.62s2.66,1.03,3.72,1.86,1.91,1.85,2.55,3.08c.63,1.23.95,2.65.95,4.28h-3.01c-.06-1.21-.33-2.27-.82-3.17-.49-.9-1.12-1.66-1.91-2.26-.78-.6-1.68-1.06-2.7-1.37s-2.09-.46-3.21-.46c-1.04,0-2.03.11-2.99.33-.96.22-1.8.57-2.52,1.06-.73.49-1.31,1.13-1.75,1.93-.44.8-.66,1.79-.66,2.97,0,.74.13,1.38.38,1.93s.6,1.01,1.04,1.39c.44.39.95.7,1.53.93.57.23,1.19.43,1.84.57l7.71,1.9c1.12.3,2.18.66,3.17,1.09.99.43,1.86.96,2.61,1.59.75.63,1.34,1.41,1.77,2.32.43.92.64,2.02.64,3.32,0,.36-.04.83-.11,1.42-.07.59-.25,1.22-.53,1.88-.28.66-.68,1.33-1.2,2.01s-1.22,1.29-2.13,1.84c-.9.55-2.01.99-3.34,1.33s-2.92.51-4.78.51-3.59-.22-5.19-.64c-1.59-.43-2.95-1.08-4.08-1.97s-1.98-2.02-2.59-3.41-.87-3.06-.78-5.01h3.01c-.03,1.63.22,2.98.75,4.08Z" fill="#fff"/><path d="M463.84,248.83v31.63h-3.01v-31.63h3.01Z" fill="#fff"/><path d="M490.24,248.83c4.81.12,8.44,1.47,10.88,4.05,2.44,2.58,3.66,6.5,3.66,11.76s-1.22,9.18-3.66,11.76c-2.44,2.59-6.06,3.94-10.88,4.05h-10.94v-31.63h10.94ZM488.74,277.9c2.27,0,4.23-.24,5.87-.73,1.64-.49,2.99-1.26,4.05-2.33s1.84-2.44,2.35-4.12c.5-1.68.75-3.71.75-6.07s-.25-4.38-.75-6.07c-.5-1.68-1.29-3.06-2.35-4.12s-2.41-1.84-4.05-2.33c-1.64-.49-3.6-.73-5.87-.73h-6.42v26.49h6.42Z" fill="#fff"/><path d="M540.35,248.83v2.57h-18.83v11.43h17.63v2.57h-17.63v12.49h19.05v2.57h-22.06v-31.63h21.84Z" fill="#fff"/><path d="M574.07,258.4c.62-1.98,1.55-3.73,2.79-5.25,1.24-1.52,2.8-2.73,4.67-3.63,1.88-.9,4.05-1.35,6.54-1.35s4.65.45,6.51,1.35c1.86.9,3.41,2.11,4.65,3.63,1.24,1.52,2.17,3.27,2.79,5.25.62,1.98.93,4.06.93,6.25s-.31,4.27-.93,6.25c-.62,1.98-1.55,3.72-2.79,5.23-1.24,1.5-2.79,2.71-4.65,3.61-1.86.9-4.03,1.35-6.51,1.35s-4.66-.45-6.54-1.35c-1.88-.9-3.43-2.1-4.67-3.61-1.24-1.5-2.17-3.25-2.79-5.23-.62-1.98-.93-4.06-.93-6.25s.31-4.27.93-6.25ZM576.83,269.72c.46,1.67,1.17,3.16,2.13,4.47.96,1.32,2.19,2.37,3.7,3.17,1.5.8,3.31,1.2,5.4,1.2s3.89-.4,5.38-1.2c1.49-.8,2.72-1.85,3.68-3.17.96-1.31,1.67-2.8,2.13-4.47.46-1.67.69-3.36.69-5.07s-.23-3.44-.69-5.1c-.46-1.65-1.17-3.14-2.13-4.45-.96-1.32-2.19-2.37-3.68-3.17-1.49-.8-3.29-1.2-5.38-1.2s-3.9.4-5.4,1.2c-1.51.8-2.74,1.85-3.7,3.17-.96,1.31-1.67,2.8-2.13,4.45-.46,1.66-.69,3.35-.69,5.1s.23,3.41.69,5.07Z" fill="#fff"/><path d="M636.58,248.83v2.57h-17.06v11.43h15.15v2.57h-15.15v15.06h-3.01v-31.63h20.07Z" fill="#fff"/><path d="M692,248.83v2.57h-11.03v29.06h-3.01v-29.06h-10.99v-2.57h25.03Z" fill="#fff"/><path d="M706.84,248.83v13.73h18.78v-13.73h3.01v31.63h-3.01v-15.33h-18.78v15.33h-3.01v-31.63h3.01Z" fill="#fff"/><path d="M765.72,248.83v2.57h-18.83v11.43h17.63v2.57h-17.63v12.49h19.05v2.57h-22.06v-31.63h21.84Z" fill="#fff"/><path d="M821.85,248.83v2.57h-11.03v29.06h-3.01v-29.06h-10.99v-2.57h25.03Z" fill="#fff"/><path d="M843.29,248.83l12.4,31.63h-3.23l-3.85-9.84h-14.4l-3.81,9.84h-3.19l12.72-31.63h3.37ZM847.59,268.06l-6.12-16.21-6.34,16.21h12.45Z" fill="#fff"/><path d="M880.81,248.83c1.33,0,2.61.13,3.83.38,1.22.25,2.3.68,3.24,1.29.93.61,1.67,1.4,2.23,2.39.56.99.84,2.22.84,3.7,0,.83-.13,1.63-.4,2.41-.27.78-.64,1.49-1.13,2.13-.49.64-1.06,1.17-1.73,1.62-.66.44-1.41.75-2.24.93v.09c2.04.27,3.66,1.1,4.87,2.5s1.82,3.14,1.82,5.21c0,.5-.04,1.07-.13,1.71-.09.63-.27,1.28-.53,1.95-.27.66-.65,1.32-1.15,1.97-.5.65-1.17,1.22-2.01,1.71-.84.49-1.88.89-3.1,1.2-1.22.31-2.69.47-4.41.47h-13.38v-31.63h13.38ZM880.81,262.7c1.21,0,2.26-.14,3.15-.42.88-.28,1.62-.66,2.22-1.15.59-.49,1.03-1.05,1.33-1.71.29-.65.44-1.34.44-2.08,0-3.96-2.38-5.94-7.13-5.94h-10.37v11.29h10.37ZM880.81,277.9c1.12,0,2.18-.1,3.19-.29,1-.19,1.89-.54,2.66-1.04.77-.5,1.38-1.17,1.82-2.01.44-.84.66-1.9.66-3.17,0-2.04-.72-3.57-2.15-4.59-1.43-1.02-3.5-1.53-6.18-1.53h-10.37v12.63h10.37Z" fill="#fff"/><path d="M908.85,248.83v29.06h17.72v2.57h-20.74v-31.63h3.01Z" fill="#fff"/><path d="M960.33,248.83v2.57h-18.83v11.43h17.63v2.57h-17.63v12.49h19.05v2.57h-22.06v-31.63h21.84Z" fill="#fff"/></g></g><rect x="142.59" y="293.44" width="790.79" height="6.65" fill="#c8912e" opacity=".85"/></svg>