<?xml version="1.0" encoding="UTF-8"?><svg id="Layer_1" xmlns="http://www.w3.org/2000/svg" viewBox="0 0 201.26 175.91"><path d="M45.24,175.91l35.33-46.86C53.71,86.04,26.86,43.02,0,0c25.11,28.05,50.21,56.1,75.32,84.15,7.29,8.74,14.59,17.47,21.88,26.21,9.91-9.6,19.84-19.46,29.79-29.58C153.75,53.53,178.46,26.53,201.26.05c-29.66,42.86-59.31,85.72-88.97,128.58l35.34,47.28h-33.72l-17.82-27.82-17.99,27.82h-32.87Z" fill="#c8912e" opacity=".85"/><path d="M109.42,66.09c0,7.48-6.07,13.55-13.55,13.55s-13.55-6.07-13.55-13.55,6.07-13.55,13.55-13.55,13.55,6.07,13.55,13.55Z" fill="#c8912e" opacity=".85"/></svg>