<?xml version="1.0" encoding="UTF-8"?>
<svg id="Layer_1" xmlns="http://www.w3.org/2000/svg" version="1.1" viewBox="0 0 1100 345">
  <!-- Generator: Adobe Illustrator 29.5.1, SVG Export Plug-In . SVG Version: 2.1.0 Build 141)  -->
  <defs>
    <style>
      .st0 {
        fill: #c8912e;
      }

      .st0, .st1 {
        isolation: isolate;
      }

      .st2 {
        fill: #fff;
      }

      .st3 {
        fill: #1b3664;
      }
    </style>
  </defs>
  <rect class="st3" x="-.3" y=".2" width="1099.8" height="344.7"/>
  <path class="st2" d="M210.5,79.6c6.8,0,13,.6,18.5,1.8,5.6,1.2,10.4,3.2,14.4,5.9,4,2.7,7.1,6.3,9.3,10.9,2.2,4.5,3.3,10.1,3.3,16.7s-1.6,13.2-4.9,17.9c-3.3,4.8-8.1,8.7-14.4,11.8,8.8,2.5,15.3,6.9,19.6,13.2,4.3,6.3,6.5,13.9,6.5,22.8s-1.4,13.4-4.2,18.6c-2.8,5.2-6.6,9.5-11.3,12.9-4.7,3.3-10.1,5.8-16.1,7.4-6.1,1.6-12.3,2.4-18.6,2.4h-69V79.6h67,0ZM206.5,137.1c5.6,0,10.2-1.3,13.8-4,3.6-2.7,5.4-7,5.4-13s-.6-6-1.8-8.2c-1.2-2.1-2.8-3.8-4.8-5-2-1.2-4.3-2-6.9-2.5-2.6-.5-5.3-.7-8.1-.7h-29.3v33.3h31.7ZM208.3,197.6c3.1,0,6-.3,8.8-.9,2.8-.6,5.2-1.6,7.4-3,2.1-1.4,3.8-3.3,5.1-5.7s1.9-5.4,1.9-9.2c0-7.3-2.1-12.5-6.2-15.6-4.1-3.1-9.6-4.7-16.3-4.7h-34.1v39.1h33.5,0Z"/>
  <path class="st2" d="M311.1,197.1c4.2,4.1,10.4,6.2,18.3,6.2s10.6-1.4,14.8-4.3,6.6-5.9,7.6-9.1h24.9c-4,12.4-10.1,21.2-18.3,26.5-8.2,5.3-18.2,8-29.9,8s-15.4-1.3-21.9-3.9c-6.5-2.6-12-6.3-16.5-11.1-4.5-4.8-8-10.5-10.5-17.1-2.5-6.6-3.7-13.9-3.7-21.9s1.3-14.9,3.8-21.5c2.5-6.6,6.1-12.4,10.8-17.2,4.6-4.8,10.2-8.7,16.6-11.5,6.4-2.8,13.6-4.2,21.4-4.2s16.4,1.7,22.9,5.1,11.9,7.9,16,13.7c4.2,5.7,7.2,12.2,9.1,19.5,1.9,7.3,2.5,14.9,2,22.9h-74.4c.4,9.2,2.7,15.8,7,19.9h0ZM343.1,142.9c-3.4-3.7-8.5-5.6-15.5-5.6s-8.3.8-11.3,2.3c-3,1.5-5.4,3.4-7.2,5.7-1.8,2.3-3.1,4.6-3.8,7.2s-1.2,4.8-1.3,6.8h46c-1.3-7.2-3.7-12.6-7.1-16.3h0Z"/>
  <path class="st2" d="M422.1,118.8v14.3h.6c3.6-6,8.2-10.3,14-13.1,5.7-2.7,11.6-4.1,17.5-4.1s13.8,1,18.6,3.1c4.9,2.1,8.7,4.9,11.5,8.6,2.8,3.7,4.8,8.1,5.9,13.3,1.1,5.2,1.7,11.1,1.7,17.4v63.4h-28.3v-58.2c0-8.5-1.3-14.9-4-19-2.7-4.2-7.4-6.3-14.1-6.3s-13.3,2.3-16.7,6.9c-3.5,4.6-5.2,12.1-5.2,22.6v54h-28.3v-103.1h26.9,0Z"/>
  <path class="st2" d="M543.7,197.1c4.2,4.1,10.4,6.2,18.3,6.2s10.6-1.4,14.8-4.3,6.6-5.9,7.6-9.1h24.9c-4,12.4-10.1,21.2-18.3,26.5-8.2,5.3-18.2,8-29.9,8s-15.4-1.3-21.9-3.9-12-6.3-16.5-11.1c-4.5-4.8-8-10.5-10.5-17.1-2.5-6.6-3.7-13.9-3.7-21.9s1.3-14.9,3.8-21.5c2.5-6.6,6.1-12.4,10.8-17.2,4.7-4.8,10.2-8.7,16.6-11.5s13.6-4.2,21.4-4.2,16.4,1.7,22.9,5.1,11.9,7.9,16,13.7c4.2,5.7,7.2,12.2,9.1,19.5,1.9,7.3,2.5,14.9,2,22.9h-74.3c.4,9.2,2.7,15.8,7,19.9h0ZM575.7,142.9c-3.4-3.7-8.5-5.6-15.5-5.6s-8.3.8-11.3,2.3c-3,1.5-5.4,3.4-7.2,5.7-1.8,2.3-3.1,4.6-3.8,7.2s-1.2,4.8-1.3,6.8h46c-1.3-7.2-3.7-12.6-7.1-16.3h0Z"/>
  <path class="st2" d="M617.1,137.8v-18.9h16.9v-8c0-9.2,2.9-16.7,8.6-22.5,5.7-5.8,14.3-8.8,25.9-8.8s5,0,7.6.3c2.5.2,5,.4,7.4.5v21.1c-3.3-.4-6.8-.6-10.4-.6s-6.6.9-8.3,2.7c-1.7,1.8-2.5,4.8-2.5,9.1v6.2h19.5v18.9h-19.5v84.1h-28.3v-84.1h-16.9Z"/>
  <path class="st2" d="M859.2,150.5c.4-6.6,2.1-12.2,5-16.5,2.9-4.4,6.6-7.9,11.2-10.6,4.5-2.7,9.6-4.6,15.2-5.7s11.3-1.7,17-1.7,10.4.4,15.8,1.1c5.3.7,10.2,2.2,14.5,4.3s8,5.1,10.8,8.9c2.8,3.8,4.2,8.8,4.2,15.1v53.6c0,4.6.3,9.1.8,13.4.5,4.2,1.5,7.4,2.8,9.6h-28.7c-.5-1.6-1-3.2-1.3-4.9s-.6-3.4-.7-5.1c-4.5,4.6-9.8,7.9-16,9.8-6.1,1.9-12.4,2.8-18.7,2.8s-9.5-.6-13.8-1.8c-4.2-1.2-8-3.1-11.2-5.6s-5.7-5.7-7.5-9.6c-1.8-3.9-2.7-8.4-2.7-13.8s1-10.7,3.1-14.4,4.7-6.8,8-9.1c3.2-2.3,7-3.9,11.2-5.1,4.2-1.1,8.4-2,12.7-2.7,4.2-.7,8.4-1.2,12.6-1.6,4.1-.4,7.8-1,11-1.8,3.2-.8,5.7-2,7.6-3.5s2.7-3.8,2.6-6.7c0-3.1-.5-5.5-1.5-7.3-1-1.8-2.3-3.2-4-4.2s-3.6-1.7-5.8-2-4.5-.5-7.1-.5c-5.6,0-10,1.2-13.2,3.6s-5,6.4-5.6,12h-28.3,0ZM924.6,171.4c-1.2,1.1-2.7,1.9-4.5,2.5s-3.7,1.1-5.8,1.5c-2.1.4-4.2.7-6.5,1s-4.5.6-6.8,1c-2.1.4-4.2.9-6.3,1.6-2.1.7-3.9,1.6-5.4,2.7-1.5,1.1-2.8,2.6-3.7,4.3s-1.4,3.9-1.4,6.6.5,4.6,1.4,6.4c.9,1.7,2.2,3.1,3.8,4.1,1.6,1,3.5,1.7,5.6,2.1,2.1.4,4.3.6,6.6.6,5.6,0,9.9-.9,13-2.8,3-1.9,5.3-4.1,6.8-6.7,1.5-2.6,2.4-5.2,2.7-7.9.3-2.7.5-4.8.5-6.4v-10.6h0Z"/>
  <path class="st0" d="M745.5,222.6l35.3-46.9c-26.9-43-53.7-86-80.6-129.1,25.1,28.1,50.2,56.1,75.3,84.1,7.3,8.7,14.6,17.5,21.9,26.2,9.9-9.6,19.8-19.5,29.8-29.6,26.8-27.2,51.5-54.2,74.3-80.7-29.7,42.9-59.3,85.7-89,128.6l35.3,47.3h-33.7l-17.8-27.8-18,27.8h-32.9,0Z"/>
  <path class="st0" d="M809.6,112.7c0,7.5-6.1,13.6-13.5,13.6s-13.5-6.1-13.5-13.6,6.1-13.6,13.5-13.6,13.5,6.1,13.5,13.6Z"/>
  <rect class="st2" x="695" y="118.6" width="28.4" height="103.2"/>
  <g class="st1">
    <g class="st1">
      <path class="st2" d="M143.8,258.4c.6-2,1.6-3.7,2.8-5.2s2.8-2.7,4.7-3.6c1.9-.9,4.1-1.4,6.5-1.4s4.6.4,6.5,1.4c1.9.9,3.4,2.1,4.6,3.6,1.2,1.5,2.2,3.3,2.8,5.2s.9,4.1.9,6.2-.3,4.3-.9,6.2-1.6,3.7-2.8,5.2c-1.2,1.5-2.8,2.7-4.6,3.6s-4,1.4-6.5,1.4-4.7-.5-6.5-1.4c-1.9-.9-3.4-2.1-4.7-3.6s-2.2-3.2-2.8-5.2-.9-4.1-.9-6.2.3-4.3.9-6.2ZM146.5,269.7c.5,1.7,1.2,3.2,2.1,4.5,1,1.3,2.2,2.4,3.7,3.2,1.5.8,3.3,1.2,5.4,1.2s3.9-.4,5.4-1.2c1.5-.8,2.7-1.9,3.7-3.2,1-1.3,1.7-2.8,2.1-4.5s.7-3.4.7-5.1-.2-3.4-.7-5.1c-.5-1.6-1.2-3.1-2.1-4.4-1-1.3-2.2-2.4-3.7-3.2s-3.3-1.2-5.4-1.2-3.9.4-5.4,1.2-2.7,1.9-3.7,3.2c-1,1.3-1.7,2.8-2.1,4.4-.5,1.7-.7,3.4-.7,5.1s.2,3.4.7,5.1Z"/>
      <path class="st2" d="M189.5,248.8l18.4,26.8h0v-26.8h3v31.6h-3.4l-18.4-26.8h0v26.8h-3v-31.6h3.4Z"/>
      <path class="st2" d="M243.8,248.8h3.5l10.4,16,10.4-16h3.6l-12.5,18.6v13h-3v-13l-12.4-18.6h0Z"/>
      <path class="st2" d="M282.6,258.4c.6-2,1.5-3.7,2.8-5.2s2.8-2.7,4.7-3.6c1.9-.9,4-1.4,6.5-1.4s4.6.4,6.5,1.4c1.9.9,3.4,2.1,4.6,3.6s2.2,3.3,2.8,5.2.9,4.1.9,6.2-.3,4.3-.9,6.2-1.5,3.7-2.8,5.2c-1.2,1.5-2.8,2.7-4.6,3.6s-4,1.4-6.5,1.4-4.7-.5-6.5-1.4c-1.9-.9-3.4-2.1-4.7-3.6s-2.2-3.2-2.8-5.2-.9-4.1-.9-6.2.3-4.3.9-6.2ZM285.4,269.7c.5,1.7,1.2,3.2,2.1,4.5,1,1.3,2.2,2.4,3.7,3.2,1.5.8,3.3,1.2,5.4,1.2s3.9-.4,5.4-1.2c1.5-.8,2.7-1.9,3.7-3.2,1-1.3,1.7-2.8,2.1-4.5s.7-3.4.7-5.1-.2-3.4-.7-5.1c-.5-1.6-1.2-3.1-2.1-4.4-1-1.3-2.2-2.4-3.7-3.2s-3.3-1.2-5.4-1.2-3.9.4-5.4,1.2-2.7,1.9-3.7,3.2c-1,1.3-1.7,2.8-2.1,4.4-.5,1.7-.7,3.4-.7,5.1s.2,3.4.7,5.1Z"/>
      <path class="st2" d="M327.8,248.8v19.6c0,1.8.2,3.4.6,4.7.4,1.3,1,2.3,1.8,3.1s1.8,1.4,2.9,1.8c1.1.4,2.5.6,3.9.6s2.8-.2,3.9-.6,2.1-1,2.9-1.8,1.4-1.9,1.8-3.1c.4-1.3.6-2.8.6-4.7v-19.6h3v20.3c0,1.6-.2,3.2-.7,4.6s-1.2,2.7-2.2,3.8-2.3,2-3.8,2.6c-1.5.6-3.4,1-5.6,1s-4-.3-5.6-1c-1.5-.6-2.8-1.5-3.8-2.6s-1.7-2.4-2.2-3.8-.7-3-.7-4.6v-20.2h3Z"/>
      <path class="st2" d="M378.7,248.8c1.3,0,2.5.2,3.7.5s2.2.8,3.1,1.5c.9.7,1.6,1.5,2.1,2.6.5,1.1.8,2.3.8,3.7,0,2-.5,3.8-1.5,5.2s-2.6,2.4-4.6,2.8h0c1,.2,1.9.5,2.6.9s1.2.9,1.7,1.5.7,1.3.9,2.1.3,1.7.4,2.6c0,.5,0,1.2,0,2,0,.8,0,1.5.2,2.3s.2,1.5.4,2.2c.2.7.5,1.2.8,1.6h-3.3c-.2-.3-.3-.7-.4-1.1-.1-.4-.2-.9-.2-1.3s0-.9-.1-1.4,0-.8,0-1.1c0-1.1-.2-2.2-.3-3.4-.1-1.1-.4-2.1-.8-3s-1-1.6-1.9-2.1-1.9-.8-3.4-.7h-11.4v14h-3v-31.6h14.5,0ZM378.5,263.9c.9,0,1.8-.1,2.6-.4s1.5-.7,2.2-1.2c.6-.5,1.1-1.2,1.5-1.9s.5-1.6.5-2.6c0-1.9-.6-3.5-1.7-4.6-1.1-1.1-2.8-1.7-5.1-1.7h-11.2v12.4h11.3Z"/>
      <path class="st2" d="M426,274.1c.5,1.1,1.3,2,2.2,2.6s2,1.1,3.3,1.4c1.3.3,2.6.4,4.1.4s1.7-.1,2.7-.4c1-.2,1.9-.6,2.7-1.1.8-.5,1.5-1.2,2.1-2s.8-1.8.8-2.9-.2-1.6-.6-2.3c-.4-.6-.9-1.2-1.5-1.6-.6-.4-1.3-.8-2.1-1.1-.8-.3-1.5-.5-2.3-.7l-7-1.7c-.9-.2-1.8-.5-2.7-.9-.9-.4-1.6-.8-2.3-1.4s-1.2-1.3-1.6-2.2c-.4-.9-.6-1.9-.6-3.1s.1-1.7.4-2.7.9-2,1.7-2.9,1.9-1.7,3.3-2.3c1.4-.6,3.2-.9,5.5-.9s3.1.2,4.5.6,2.7,1,3.7,1.9,1.9,1.9,2.5,3.1c.6,1.2,1,2.6,1,4.3h-3c0-1.2-.3-2.3-.8-3.2-.5-.9-1.1-1.7-1.9-2.3-.8-.6-1.7-1.1-2.7-1.4s-2.1-.5-3.2-.5-2,.1-3,.3-1.8.6-2.5,1.1c-.7.5-1.3,1.1-1.8,1.9-.4.8-.7,1.8-.7,3s.1,1.4.4,1.9.6,1,1,1.4c.4.4,1,.7,1.5.9.6.2,1.2.4,1.8.6l7.7,1.9c1.1.3,2.2.7,3.2,1.1,1,.4,1.9,1,2.6,1.6s1.3,1.4,1.8,2.3c.4.9.6,2,.6,3.3s0,.8-.1,1.4c0,.6-.2,1.2-.5,1.9s-.7,1.3-1.2,2-1.2,1.3-2.1,1.8c-.9.5-2,1-3.3,1.3s-2.9.5-4.8.5-3.6-.2-5.2-.6c-1.6-.4-3-1.1-4.1-2s-2-2-2.6-3.4-.9-3.1-.8-5h3c0,1.6.2,3,.8,4.1h0Z"/>
      <path class="st2" d="M463.8,248.8v31.6h-3v-31.6h3Z"/>
      <path class="st2" d="M490.2,248.8c4.8.1,8.4,1.5,10.9,4.1s3.7,6.5,3.7,11.8-1.2,9.2-3.7,11.8c-2.4,2.6-6.1,3.9-10.9,4h-10.9v-31.6h10.9ZM488.7,277.9c2.3,0,4.2-.2,5.9-.7,1.6-.5,3-1.3,4-2.3s1.8-2.4,2.4-4.1c.5-1.7.8-3.7.8-6.1s-.2-4.4-.8-6.1c-.5-1.7-1.3-3.1-2.4-4.1s-2.4-1.8-4-2.3c-1.6-.5-3.6-.7-5.9-.7h-6.4v26.5h6.4Z"/>
      <path class="st2" d="M540.3,248.8v2.6h-18.8v11.4h17.6v2.6h-17.6v12.5h19v2.6h-22.1v-31.6h21.8Z"/>
      <path class="st2" d="M574.1,258.4c.6-2,1.5-3.7,2.8-5.2s2.8-2.7,4.7-3.6c1.9-.9,4-1.4,6.5-1.4s4.7.4,6.5,1.4c1.9.9,3.4,2.1,4.7,3.6,1.2,1.5,2.2,3.3,2.8,5.2s.9,4.1.9,6.2-.3,4.3-.9,6.2-1.5,3.7-2.8,5.2c-1.2,1.5-2.8,2.7-4.7,3.6-1.9.9-4,1.4-6.5,1.4s-4.7-.5-6.5-1.4-3.4-2.1-4.7-3.6c-1.2-1.5-2.2-3.2-2.8-5.2s-.9-4.1-.9-6.2.3-4.3.9-6.2ZM576.8,269.7c.5,1.7,1.2,3.2,2.1,4.5,1,1.3,2.2,2.4,3.7,3.2,1.5.8,3.3,1.2,5.4,1.2s3.9-.4,5.4-1.2c1.5-.8,2.7-1.9,3.7-3.2,1-1.3,1.7-2.8,2.1-4.5s.7-3.4.7-5.1-.2-3.4-.7-5.1c-.5-1.6-1.2-3.1-2.1-4.4-1-1.3-2.2-2.4-3.7-3.2s-3.3-1.2-5.4-1.2-3.9.4-5.4,1.2c-1.5.8-2.7,1.9-3.7,3.2-1,1.3-1.7,2.8-2.1,4.4-.5,1.7-.7,3.4-.7,5.1s.2,3.4.7,5.1Z"/>
      <path class="st2" d="M636.6,248.8v2.6h-17.1v11.4h15.2v2.6h-15.2v15.1h-3v-31.6h20.1Z"/>
      <path class="st2" d="M692,248.8v2.6h-11v29.1h-3v-29.1h-11v-2.6h25Z"/>
      <path class="st2" d="M706.8,248.8v13.7h18.8v-13.7h3v31.6h-3v-15.3h-18.8v15.3h-3v-31.6h3Z"/>
      <path class="st2" d="M765.7,248.8v2.6h-18.8v11.4h17.6v2.6h-17.6v12.5h19v2.6h-22.1v-31.6h21.8Z"/>
      <path class="st2" d="M821.8,248.8v2.6h-11v29.1h-3v-29.1h-11v-2.6h25Z"/>
      <path class="st2" d="M843.3,248.8l12.4,31.6h-3.2l-3.8-9.8h-14.4l-3.8,9.8h-3.2l12.7-31.6h3.4,0ZM847.6,268.1l-6.1-16.2-6.3,16.2h12.5Z"/>
      <path class="st2" d="M880.8,248.8c1.3,0,2.6.1,3.8.4,1.2.2,2.3.7,3.2,1.3.9.6,1.7,1.4,2.2,2.4s.8,2.2.8,3.7-.1,1.6-.4,2.4-.6,1.5-1.1,2.1-1.1,1.2-1.7,1.6c-.7.4-1.4.8-2.2.9h0c2,.4,3.7,1.2,4.9,2.6s1.8,3.1,1.8,5.2,0,1.1-.1,1.7c0,.6-.3,1.3-.5,2-.3.7-.7,1.3-1.2,2s-1.2,1.2-2,1.7-1.9.9-3.1,1.2-2.7.5-4.4.5h-13.4v-31.6h13.4ZM880.8,262.7c1.2,0,2.3-.1,3.2-.4.9-.3,1.6-.7,2.2-1.1.6-.5,1-1,1.3-1.7.3-.6.4-1.3.4-2.1,0-4-2.4-5.9-7.1-5.9h-10.4v11.3h10.4,0ZM880.8,277.9c1.1,0,2.2-.1,3.2-.3,1-.2,1.9-.5,2.7-1,.8-.5,1.4-1.2,1.8-2s.7-1.9.7-3.2c0-2-.7-3.6-2.2-4.6-1.4-1-3.5-1.5-6.2-1.5h-10.4v12.6h10.4Z"/>
      <path class="st2" d="M908.8,248.8v29.1h17.7v2.6h-20.7v-31.6h3Z"/>
      <path class="st2" d="M960.3,248.8v2.6h-18.8v11.4h17.6v2.6h-17.6v12.5h19v2.6h-22.1v-31.6h21.8Z"/>
    </g>
  </g>
  <rect class="st0" x="142.6" y="293.4" width="790.8" height="6.6"/>
</svg>